<?xml version="1.0" encoding="UTF-8"?>
<svg xmlns="http://www.w3.org/2000/svg" viewBox="0 0 400 516.75">
  <defs>
    <style>
      .cls-1 {
        opacity: .5;
      }

      .cls-1, .cls-2 {
        mix-blend-mode: multiply;
      }

      .cls-1, .cls-3 {
        fill: #dfb14d;
      }

      .cls-4 {
        isolation: isolate;
      }

      .cls-2, .cls-5 {
        fill: #545554;
      }

      .cls-6 {
        fill: #242424;
      }

      .cls-7 {
        fill: #273c48;
      }
    </style>
  </defs>
  <g class="cls-4">
    <g id="Layer_1" data-name="Layer 1">
      <g>
        <path class="cls-6" d="M200,48.8C89.54,48.8,0,138.34,0,248.8c0,56.99,23.88,108.37,62.13,144.81,1.96-1.73,3.96-3.41,5.98-5.08-.55,.45-1.12,.88-1.66,1.34V206.58c0-7.89,5.44-17.84,12.09-22.1l110.09-70.53c6.65-4.26,17.51-4.23,24.14,.06l108.73,70.41c6.63,4.29,12.05,14.26,12.05,22.15v173.22c-.23-.16-.46-.31-.69-.48,3.74,2.68,7.43,5.44,10.99,8.35,34.74-35.98,56.15-84.91,56.15-138.87,0-110.46-89.54-200-200-200Z"/>
        <path class="cls-3" d="M206.46,338.75c47.46,0,91.34,15.25,127.09,41.05V206.58c0-7.89-5.42-17.86-12.05-22.15l-108.73-70.41c-6.63-4.29-17.49-4.32-24.14-.06l-110.09,70.53c-6.65,4.26-12.09,14.2-12.09,22.1v183.28c37.83-31.88,86.66-51.11,140.01-51.11Z"/>
        <circle class="cls-1" cx="200" cy="151.67" r="23.44" transform="translate(-42.7 87.63) rotate(-22.39)"/>
        <path class="cls-5" d="M217.7,145.93c0,9.78-7.93,17.71-17.7,17.71s-17.7-7.93-17.7-17.71,7.93-17.7,17.7-17.7,17.7,7.93,17.7,17.7Z"/>
        <path class="cls-3" d="M200,150.48c-.9,0-1.79-.43-2.35-1.22-2-2.86-49.11-70.37-49.11-97.79S171.63,0,200,0c1.59,0,2.87,1.28,2.87,2.87s-1.29,2.87-2.87,2.87c-25.21,0-45.72,20.51-45.72,45.72s47.59,93.81,48.07,94.49c.91,1.3,.59,3.09-.7,4-.5,.35-1.08,.52-1.65,.52Z"/>
        <path class="cls-5" d="M99.69,429.19c50.74,47.98,100.31,87.56,100.31,87.56,0,0,49.57-39.58,100.31-87.56H99.69Z"/>
        <path class="cls-7" d="M333.55,379.81V206.58c0-7.89-5.42-17.86-12.05-22.15l-.35-.23c-29.97,81.36-112.26,179.24-254.7,114.35v91.32c37.83-31.88,86.66-51.11,140.01-51.11,47.46,0,91.34,15.25,127.09,41.05Z"/>
        <path class="cls-2" d="M160.15,483.51c23.5,20.18,39.85,33.23,39.85,33.23,0,0,49.57-39.58,100.31-87.56h-51.38c-13.91,25.42-41.76,52.55-88.78,54.33Z"/>
        <path class="cls-3" d="M200,150.48c-.57,0-1.14-.17-1.65-.52-1.3-.91-1.61-2.7-.7-4,.48-.69,48.07-68.87,48.07-94.49S225.21,5.74,200,5.74c-1.59,0-2.87-1.28-2.87-2.87s1.29-2.87,2.87-2.87c28.37,0,51.46,23.08,51.46,51.46s-47.1,94.93-49.11,97.79c-.56,.8-1.45,1.22-2.35,1.22Z"/>
        <path class="cls-7" d="M185.64,115.87c-2.97-5.3-5.91-10.64-8.74-15.97l-7.7,12.15c1.92,3.55,3.89,7.09,5.86,10.61l10.59-6.78Z"/>
      </g>
    </g>
  </g>
</svg>