<?xml version="1.0" encoding="utf-8"?>
<!-- Generator: Adobe Illustrator 27.0.0, SVG Export Plug-In . SVG Version: 6.00 Build 0)  -->
<svg version="1.1" xmlns="http://www.w3.org/2000/svg" xmlns:xlink="http://www.w3.org/1999/xlink" x="0px" y="0px"
	 viewBox="0 0 500 500" style="enable-background:new 0 0 500 500;" xml:space="preserve">
<style type="text/css">
	.st0{fill:#FFFFFF;}
	.st1{fill:#DFB14D;}
	.st2{opacity:0.71;fill:#333333;stroke:#333333;stroke-width:2;stroke-miterlimit:10;}
	.st3{display:none;opacity:0.88;fill:#333333;}
	.st4{fill:#00A5A5;}
	.st5{fill:#FDFCEE;}
	.st6{fill:#545454;}
	.st7{fill:#472B29;}
	.st8{fill:#EE3E54;}
	.st9{fill:#F1BC19;}
	.st10{fill:#88AE45;}
	.st11{fill:#C0E5E4;}
	.st12{fill:#B2876B;}
	.st13{fill:#512C2B;}
	.st14{opacity:0.3;}
	.st15{opacity:0.8;fill:#F4989E;enable-background:new    ;}
	.st16{opacity:0.41;fill:#472B29;enable-background:new    ;}
	.st17{fill:#6D1B18;}
	.st18{fill:#FDFCEF;}
	.st19{fill:#E6E7E8;}
	.st20{display:none;opacity:0.67;fill:#333333;stroke:#333333;stroke-width:2;stroke-miterlimit:10;}
	.st21{fill:#F2F2F2;stroke:#545454;stroke-miterlimit:10;}
	.st22{fill:#F2F2F2;}
	.st23{fill:none;stroke:#DFB14D;stroke-width:2;stroke-miterlimit:10;}
	.st24{fill:#E6E6E6;}
	.st25{fill:#A8A8A8;}
	.st26{opacity:0.2;enable-background:new    ;}
	.st27{fill:#2F2E41;}
	.st28{fill:#A0616A;}
	.st29{fill:#575A89;}
	.st30{opacity:0.1;enable-background:new    ;}
	.st31{opacity:0.97;fill:#00A5A5;}
	.st32{fill:#333333;}
</style>
<g id="Layer_1">
</g>
<g id="Layer_2">
	<path class="st20" d="M373.6,396.2l68.9-119.3c11.3-19.6,11.3-43.7,0-63.2L373.6,94.4c-11.3-19.6-32.2-31.6-54.7-31.6l-137.8,0
		c-22.6,0-43.5,12-54.8,31.6L57.5,213.7c-11.3,19.6-11.3,43.7,0,63.2l68.9,119.3c11.3,19.6,32.2,31.6,54.7,31.6l137.8,0
		C341.5,427.8,362.3,415.8,373.6,396.2z"/>
	<path class="st2" d="M436,320.9l0-141.8c0-22.6-12-43.5-31.6-54.8L281.6,53.5c-19.6-11.3-43.7-11.3-63.2,0L95.6,124.4
		C76.1,135.7,64,156.5,64,179.1l0,141.8c0,22.6,12,43.5,31.6,54.8l122.8,70.9c19.6,11.3,43.7,11.3,63.2,0l122.8-70.9
		C423.9,364.3,436,343.5,436,320.9z"/>
	<g>
		<path class="st1" d="M392.8,72.2c-2.5,0-4.5,2-4.5,4.5s2,4.5,4.5,4.5c0,0,0,0,0,0c2.5,0,4.5-2,4.5-4.5
			C397.3,74.3,395.2,72.3,392.8,72.2C392.8,72.2,392.8,72.2,392.8,72.2z"/>
		<path class="st1" d="M420.2,67.2c-11,0-20,9-20,20s9,20,20,20s20-9,20-20S431.3,67.2,420.2,67.2z"/>
		<path class="st6" d="M69.3,146.2c-5.2,0-9.5,4.3-9.5,9.5c0,5.2,4.3,9.5,9.5,9.5c5.2,0,9.5-4.3,9.5-9.5
			C78.8,150.5,74.5,146.2,69.3,146.2z"/>
		<path class="st1" d="M395.2,386.2c-5.2,0-9.5,4.2-9.5,9.5c0,5.2,4.2,9.5,9.5,9.5c0,0,0,0,0,0c5.2,0,9.5-4.2,9.5-9.5
			C404.8,390.5,400.5,386.3,395.2,386.2C395.3,386.2,395.3,386.2,395.2,386.2z M95.3,370.2c-11,0-20,9-20,20s9,20,20,20s20-9,20-20
			S106.3,370.2,95.3,370.2z"/>
		<path class="st4" d="M124.8,413.8c-5.2,0-9.5,4.2-9.5,9.5c0,5.2,4.2,9.5,9.5,9.5c0,0,0,0,0,0c5.2,0,9.5-4.2,9.5-9.5
			C134.3,418,130,413.8,124.8,413.8C124.8,413.8,124.8,413.8,124.8,413.8z"/>
		<path class="st21" d="M338.2,392.2c-7.2,0-13,5.8-13,13c0,7.2,5.8,13,13,13s13-5.8,13-13C351.3,398.1,345.4,392.2,338.2,392.2z
			 M82.8,244.2c-2.5,0-4.5,2-4.5,4.5c0,2.5,2,4.5,4.5,4.5c0,0,0,0,0,0c2.5,0,4.5-2,4.5-4.5C87.3,246.3,85.2,244.3,82.8,244.2
			C82.8,244.2,82.8,244.2,82.8,244.2z"/>
		<path class="st1" d="M428.8,160.8c-2.5,0-4.5,2-4.5,4.5c0,2.5,2,4.5,4.5,4.5c0,0,0,0,0,0c2.5,0,4.5-2,4.5-4.5
			C433.3,162.8,431.2,160.8,428.8,160.8C428.8,160.8,428.8,160.8,428.8,160.8z"/>
		<path class="st22" d="M404.8,332.2c-5,0-9,4-9,9c0,5,4,9,9,9c0,0,0,0,0,0c5,0,9-4,9-9C413.8,336.3,409.7,332.3,404.8,332.2
			C404.8,332.2,404.8,332.2,404.8,332.2z"/>
	</g>
	<g>
		<ellipse class="st6" cx="251.5" cy="381.2" rx="106.5" ry="18.8"/>
		<path class="st23" d="M162.7,203.7c0-27.4,40.2-49.7,89.9-49.7s89.9,22.3,89.9,49.7"/>
		<path class="st24" d="M280.9,173.1h-73.1c-14.5-24.4-14.5-48.8,0-73.1h73.1C260.7,124.4,260.7,148.8,280.9,173.1z"/>
		<rect x="218.2" y="108.7" class="st6" width="41.2" height="5.2"/>
		<rect x="204.9" y="125.8" class="st0" width="54.6" height="1.7"/>
		<rect x="204.9" y="134.8" class="st0" width="54.6" height="1.7"/>
		<rect x="204.9" y="143.8" class="st0" width="54.6" height="1.7"/>
		<path class="st1" d="M310.1,335c0,23.2,14.6,42,32.5,42"/>
		<path class="st6" d="M342.6,377c0-23.5,16.2-42.4,36.3-42.4"/>
		<path class="st6" d="M321.9,337.1c0,22,9.3,39.9,20.7,39.9"/>
		<path class="st1" d="M342.6,377c0-30,18.8-54.2,42-54.2"/>
		<path class="st25" d="M335.8,377.3c0,0,4.6-0.1,6-1.1c1.4-1,7.1-2.2,7.4-0.6s6.9,7.9,1.7,7.9s-12.1-0.8-13.5-1.7
			C336.1,381,335.8,377.3,335.8,377.3z"/>
		<path class="st26" d="M351.1,383c-5.2,0-12.1-0.8-13.5-1.7c-1.1-0.6-1.5-3-1.6-4c-0.1,0-0.2,0-0.2,0s0.3,3.7,1.7,4.6
			c1.4,0.8,8.3,1.7,13.5,1.7c1.5,0,2-0.5,2-1.3C352.7,382.6,352.2,382.9,351.1,383z"/>
		<path class="st27" d="M235.9,157.1c0.4,0.2,0.9-0.1,1.2-0.5c1-1.5-0.8-3.4-0.4-5.2c0.3-1.4,1.9-2.2,2.2-3.6c0.3-1.3-0.7-2.9,0-4.1
			c0.5-1,1.8-1.2,2.9-1c1.1,0.2,2.1,0.6,3.2,0.7c1.4,0.1,2.8-0.5,4.2-0.9c1.4-0.3,3.1-0.2,4,1c1.1,1.5,0,3.6,0.4,5.4
			c0.3,1.4,1.5,2.6,1.5,4.1c0,0.5-1.4,0.1-1.3,0.6c0.1,0.5-0.6,0.1-0.1,0c0.4-0.1,0.8-0.5,0.8-0.9c0.1-0.4,0.9-0.6,0.9-1
			c0-1,1.8-0.3,2.1-1.3c0.7-2.3,0.6-4.7-0.4-6.9c-0.4-0.9-1-1.8-1.2-2.8c-0.3-1.4,0.2-2.8-0.3-4.1c-0.6-1.8-2.6-2.7-4.4-2.8
			c-1.8-0.2-3.7,0.1-5.6-0.1c-1.6-0.2-3.2-1-4.9-0.9c-2,0.1-3.7,1.4-5.1,2.9s-2.6,3.1-4.1,4.3c-0.5,0.3-0.9,0.7-1.3,1.1
			c-0.8,1-0.9,2.4-0.7,3.6c0.2,1.2,0.7,2.4,0.9,3.7c0.2,1.2,0.1,2.4,0.2,3.5c0.1,1.2,0.3,2.4,1,3.3c0.6,0.8,1.5,1.3,2.5,1.3
			c0.3,0,0.6-0.3,0.9-0.2C235.3,156.6,235.5,157,235.9,157.1z"/>
		<polygon class="st28" points="221.7,243 222.9,250.6 225.4,247.2 223.9,242.1 		"/>
		<path class="st29" d="M223.2,185.7l-1.9,5.1c0,0-1.9,26.1-1.9,28s1.4,26.8,1.9,27.8c0,0,2.3-3.3,5.3-2.8c3,0.5,1.8-8.8,1.8-8.8
			l2.8-23.1l-0.5-11.6L223.2,185.7z"/>
		<path class="st4" d="M223.2,185.7l-1.9,5.1c0,0-1.9,26.1-1.9,28s1.4,26.8,1.9,27.8c0,0,2.3-3.3,5.3-2.8c3,0.5,1.8-8.8,1.8-8.8
			l2.8-23.1l-0.5-11.6L223.2,185.7z"/>
		<path class="st28" d="M235.2,157.6c0,0,5.8,14.8,2.5,17.6c-3.3,2.8,18.7-4.8,18.7-4.8l-0.5-1.9c0,0-7.2-2.8-3.7-10.9
			C255.7,149.4,235.2,157.6,235.2,157.6z"/>
		<path class="st30" d="M235.2,157.6c0,0,5.8,14.8,2.5,17.6c-3.3,2.8,18.7-4.8,18.7-4.8l-0.5-1.9c0,0-7.2-2.8-3.7-10.9
			C255.7,149.4,235.2,157.6,235.2,157.6z"/>
		<path class="st31" d="M226.1,355.3c0,0-2.5-0.7-3.9,1.1s-6.7,6.2-6.7,6.2s-10.2-1.1-11.6,4.1c-1.4,5.1,16,5.1,20.3,3.9
			c4.2-1.2,5.1,0,5.1,0s13,1.1,13-1.1c0-2.1-1.2-9.3-1.2-9.3L226.1,355.3z"/>
		<path class="st31" d="M267.5,367.1l-2.3,7c0,0-6.9,9.5-3,11.5c3.9,1.9,17.6,3.9,17.6-1.2v-9.7c0,0-1.4-6.9-2.8-7.6
			S267.5,367.1,267.5,367.1z"/>
		<path class="st32" d="M228.6,240.4c0,0-7.4,6.5-7.3,7.3s3.7,57.4,3.7,57.4l1.9,36.7c0,0-2.5,8.6-1.2,10.6s-1.8,2.5-1.8,2.5
			s12.7,11.5,18,6.5l4.9-64l13.6,46.5c0,0,2.3,24.7,4.9,24.7s13.4,0.5,13.2-0.9s0.5-12.2-0.7-18.5c-1.2-6.3-9.5-56.6-9.5-56.6
			s-0.7-43.1,1.1-47.1c1.9-4-1-8.3-1-8.3l-12.3-4.8l-14.8,1.8L228.6,240.4z"/>
		<circle class="st28" cx="243.5" cy="151.2" r="12.3"/>
		<path class="st4" d="M273.5,177.8c-1.2-3.5-4.1-6.1-7.8-7c-3.6-0.9-7-2.1-10.4-3.5c0,0-12.5,6-15,6s-2.5-1.6-2.5-1.6
			s-6.3,6.7-9.7,7.4c-3.3,0.7-8.3,9-6.5,13.6c1.2,2.9,2.9,5.6,5.1,7.9c0,0-0.7,24.7,1.6,29.3c0,0-5.6,10.7-0.4,11.5
			c5.3,0.7,25.5-1.8,29.1,0.7c3.5,2.5,10-0.5,10.9,2.8c0.9,3.3,2.8,4.1,2.8,4.1s3-4.8,1.2-7.6C270.3,238.4,273.5,177.8,273.5,177.8z
			"/>
		<path class="st28" d="M260.4,244.1l-2.8,1.8c0,0,3,10.4,4.2,10.7c1.2,0.4,4.1-8.9,4.1-8.9L260.4,244.1z"/>
		<path class="st27" d="M233.8,155.9c0.4,0.2,0.9-0.1,1.2-0.5c1-1.5-0.8-3.4-0.4-5.2c0.3-1.4,1.9-2.2,2.2-3.6c0.3-1.3-0.7-2.9,0-4.1
			c0.5-1,1.8-1.2,2.9-1c1.1,0.2,2.1,0.6,3.2,0.7c1.4,0.1,2.8-0.5,4.2-0.9c1.4-0.3,3.1-0.2,4,1c1.1,1.5,0,3.6,0.4,5.4
			c0.3,1.4,3.6,2.5,3.9,1.5c0.7-2.3,0.6-4.7-0.4-6.9c-0.4-0.9-1-1.8-1.2-2.8c-0.3-1.4,0.2-2.8-0.3-4.1c-0.6-1.8-2.6-2.7-4.4-2.8
			c-1.8-0.2-3.7,0.1-5.6-0.1c-1.6-0.2-3.2-1-4.9-0.9c-2,0.1-3.7,1.4-5.1,2.9c-1.4,1.4-2.6,3.1-4.1,4.3c-0.5,0.3-0.9,0.7-1.3,1.1
			c-0.8,1-0.9,2.4-0.7,3.6s0.7,2.4,0.9,3.7c0.2,1.2,0.1,2.4,0.2,3.5c0.1,1.2,0.3,2.4,1,3.3c0.6,0.8,1.5,1.3,2.5,1.3
			c0.3,0,0.6-0.3,0.9-0.2C233.2,155.3,233.4,155.7,233.8,155.9z"/>
		<path class="st30" d="M266.5,180.9l5.7-3.1c0,0,13.9,33.1,10.6,42.3c-3.3,9.2-16.2,28-16.2,28s-10.2-2.1-9.2-4.2
			s7.9-15.7,8.5-17.4s4.1-13.2,2.5-14.4c-1.6-1.2-4.7-29.9-4.7-29.9L266.5,180.9z"/>
		<path class="st4" d="M266.4,175.9l7,1.9c0,0,13.9,33.1,10.6,42.3s-16.2,28-16.2,28s-10.2-2.1-9.2-4.2c1.1-2.1,7.9-15.7,8.5-17.4
			c0.5-1.8,4.1-13.2,2.5-14.4c-1.6-1.2-9.2-31.7-9.2-31.7L266.4,175.9z"/>
		<path class="st23" d="M342.5,203.7c0,28.8-40.2,52.1-89.9,52.1s-89.9-23.3-89.9-52.1"/>
		<path class="st23" d="M326.2,256.5c-20.1,10.8-46.3,17.4-75,17.4c-27.5,0-52.7-6-72.5-16.1"/>
		<path class="st23" d="M297.5,140.5c38.2,10.1,65.5,32.2,68,58.2"/>
		<path class="st23" d="M142.2,181.8c6.4-11.8,18.2-22.3,33.6-30.3"/>
		<path class="st22" d="M221.2,308.6h73.1c14.5-24.4,14.5-48.8,0-73.1h-73.1C241.4,259.8,241.4,284.2,221.2,308.6z"/>
		<rect x="245.4" y="249.4" class="st6" width="41.2" height="5.2"/>
		<rect x="242.2" y="265.1" class="st0" width="54.6" height="1.7"/>
		<rect x="242.2" y="274.1" class="st0" width="54.6" height="1.7"/>
		<path class="st22" d="M190.2,258.9h-73.1c-14.5-24.4-14.5-48.8,0-73.1h73.1C170,210.2,170,234.6,190.2,258.9z"/>
		<rect x="125.2" y="194.5" class="st6" width="41.2" height="5.2"/>
		<rect x="116.2" y="209" class="st0" width="54.6" height="1.7"/>
		<rect x="116.2" y="218" class="st0" width="54.6" height="1.7"/>
		<rect x="116.2" y="227" class="st0" width="54.6" height="1.7"/>
		<rect x="116.2" y="236" class="st0" width="54.6" height="1.7"/>
		<path class="st22" d="M309.8,225.3h73.1c14.5-24.4,14.5-48.8,0-73.1h-73.1C330,176.5,330,200.9,309.8,225.3z"/>
		<rect x="333.1" y="159.4" class="st6" width="41.2" height="5.2"/>
		<rect x="328.8" y="173.9" class="st0" width="54.6" height="1.7"/>
	</g>
</g>
</svg>
