<?xml version="1.0" encoding="utf-8"?>
<!-- Generator: Adobe Illustrator 27.0.0, SVG Export Plug-In . SVG Version: 6.00 Build 0)  -->
<svg version="1.1" xmlns="http://www.w3.org/2000/svg" xmlns:xlink="http://www.w3.org/1999/xlink" x="0px" y="0px"
	 viewBox="0 0 500 500" style="enable-background:new 0 0 500 500;" xml:space="preserve">
<style type="text/css">
	.st0{fill:#FFFFFF;}
	.st1{fill:#DFB14D;}
	.st2{opacity:0.71;fill:#333333;stroke:#333333;stroke-width:2;stroke-miterlimit:10;}
	.st3{display:none;opacity:0.88;fill:#333333;}
	.st4{fill:#00A5A5;}
	.st5{fill:#FDFCEE;}
	.st6{fill:#545454;}
	.st7{fill:#472B29;}
	.st8{fill:#EE3E54;}
	.st9{fill:#F1BC19;}
	.st10{fill:#88AE45;}
	.st11{fill:#C0E5E4;}
	.st12{fill:#B2876B;}
	.st13{fill:#512C2B;}
	.st14{opacity:0.3;}
	.st15{opacity:0.8;fill:#F4989E;enable-background:new    ;}
	.st16{opacity:0.41;fill:#472B29;enable-background:new    ;}
	.st17{fill:#6D1B18;}
	.st18{fill:#FDFCEF;}
	.st19{fill:#E6E7E8;}
	.st20{fill:#F2F2F2;stroke:#545454;stroke-miterlimit:10;}
	.st21{fill:#F2F2F2;}
	.st22{fill:none;stroke:#DFB14D;stroke-width:2;stroke-miterlimit:10;}
	.st23{fill:#E6E6E6;}
	.st24{fill:#A8A8A8;}
	.st25{opacity:0.2;enable-background:new    ;}
	.st26{fill:#2F2E41;}
	.st27{fill:#A0616A;}
	.st28{fill:#575A89;}
	.st29{opacity:0.1;enable-background:new    ;}
	.st30{opacity:0.97;fill:#00A5A5;}
	.st31{fill:#333333;}
</style>
<g id="Layer_1">
	<path class="st0" d="M-116,159.5c-1.9,0-3.5,1.6-3.5,3.5c0,1.9,1.6,3.5,3.5,3.5c0,0,0,0,0,0c1.9,0,3.5-1.6,3.5-3.5
		C-112.5,161.1-114.1,159.5-116,159.5C-116,159.5-116,159.5-116,159.5z"/>
	<path class="st1" d="M-129.5,63c-2.5,0-4.5,2-4.5,4.5c0,2.5,2,4.5,4.5,4.5c0,0,0,0,0,0c2.5,0,4.5-2,4.5-4.5
		C-125,65-127,63-129.5,63C-129.5,63-129.5,63-129.5,63z"/>
	<path class="st2" d="M-104,335.9l0-141.8c0-22.6-12-43.5-31.6-54.8l-122.8-70.9c-19.6-11.3-43.7-11.3-63.2,0l-122.8,70.9
		c-19.6,11.3-31.6,32.2-31.6,54.7l0,141.8c0,22.6,12,43.5,31.6,54.8l122.8,70.9c19.6,11.3,43.7,11.3,63.2,0l122.8-70.9
		C-116.1,379.3-104,358.5-104,335.9z"/>
	<path class="st3" d="M-265.5,66.5C-369.1,66.5-453,150.4-453,254s83.9,187.5,187.5,187.5S-78,357.6-78,254S-161.9,66.5-265.5,66.5z
		"/>
	<path class="st1" d="M-102,58c-11,0-20,9-20,20s9,20,20,20s20-9,20-20S-91,58-102,58z"/>
	<path class="st4" d="M-453,137c-5.2,0-9.5,4.3-9.5,9.5s4.3,9.5,9.5,9.5s9.5-4.3,9.5-9.5S-447.8,137-453,137z"/>
	<path class="st1" d="M-127,377c-5.2,0-9.5,4.2-9.5,9.5c0,5.2,4.2,9.5,9.5,9.5c0,0,0,0,0,0c5.2,0,9.5-4.2,9.5-9.5
		C-117.5,381.3-121.7,377-127,377C-127,377-127,377-127,377z M-427,361c-11,0-20,9-20,20c0,11,9,20,20,20s20-9,20-20
		C-407,370-416,361-427,361z"/>
	<path class="st4" d="M-397.5,404.5c-5.2,0-9.5,4.2-9.5,9.5c0,5.2,4.2,9.5,9.5,9.5c0,0,0,0,0,0c5.2,0,9.5-4.2,9.5-9.5
		C-388,408.8-392.2,404.5-397.5,404.5C-397.5,404.5-397.5,404.5-397.5,404.5z"/>
	<path class="st0" d="M-184,383c-7.2,0-13,5.8-13,13s5.8,13,13,13s13-5.8,13-13S-176.8,383-184,383z M-439.5,235
		c-2.5,0-4.5,2-4.5,4.5s2,4.5,4.5,4.5c0,0,0,0,0,0c2.5,0,4.5-2,4.5-4.5C-435,237-437,235-439.5,235C-439.5,235-439.5,235-439.5,235z
		"/>
	<path class="st1" d="M-93.5,151.5c-2.5,0-4.5,2-4.5,4.5c0,2.5,2,4.5,4.5,4.5c0,0,0,0,0,0c2.5,0,4.5-2,4.5-4.5
		C-89,153.5-91,151.5-93.5,151.5C-93.5,151.5-93.5,151.5-93.5,151.5z"/>
	<path class="st0" d="M-117.5,323c-5,0-9,4-9,9c0,5,4,9,9,9c0,0,0,0,0,0c5,0,9-4,9-9C-108.5,327-112.5,323-117.5,323
		C-117.5,323-117.5,323-117.5,323z"/>
	<path class="st5" d="M-333.5,139.5h161c15.5,0,27.5,12.5,27.5,27.5v161c0,15.5-12.5,27.5-27.5,27.5h-161
		C-349,355.5-361,343-361,328V167C-361.5,152-349,139.5-333.5,139.5z"/>
	<path class="st6" d="M-172.5,358.5h-161c-16.5,0-30-13.5-30-30V167c0-16.5,13.5-30,30-30h161c16.5,0,30,13.5,30,30v161
		C-142.5,345-156,358.5-172.5,358.5z M-333.5,142c-14,0-25,11.5-25,25v161c0,14,11.5,25,25,25h161c14,0,25-11.5,25-25V167
		c0-14-11.5-25-25-25C-172.5,142-333.5,142-333.5,142z"/>
	<path class="st7" d="M-191,175.5h-19c-1.5,0-2.5-1-2.5-2.5c0-1.5,1-2.5,2.5-2.5h19c1.5,0,2.5,1,2.5,2.5
		C-188.5,174.5-189.5,175.5-191,175.5z M-219.5,175.5H-360c-1.5,0-2.5-1-2.5-2.5c0-1.5,1-2.5,2.5-2.5h140c1.5,0,2.5,1,2.5,2.5
		C-217.5,174.5-218,175.5-219.5,175.5z M-146.5,175.5H-175c-1.5,0-2.5-1-2.5-2.5c0-1.5,1-2.5,2.5-2.5h28.5c1.5,0,2.5,1,2.5,2.5
		C-144,174.5-145,175.5-146.5,175.5z M-146.5,335h-175c-1.5,0-2.5-1-2.5-2.5s1-2.5,2.5-2.5h175c1.5,0,2.5,1,2.5,2.5
		S-145,335-146.5,335z M-331,335h-29c-1.5,0-2.5-1-2.5-2.5s1.5-2.5,2.5-2.5h28.5c1.5,0,2.5,1,2.5,2.5S-329.5,335-331,335z"/>
	<path class="st8" d="M-334.5,150.5c-3.6,0-6.5,2.9-6.5,6.5s2.9,6.5,6.5,6.5c3.6,0,6.5-2.9,6.5-6.5S-330.9,150.5-334.5,150.5z"/>
	<path class="st7" d="M-334.5,165c-4.5,0-8-3.5-8-8s3.5-8,8-8c4.5,0,8,3.5,8,8S-330,165-334.5,165z M-334.5,152c-2.5,0-5,2-5,5
		s2,5,5,5s5-2,5-5C-329.5,154-331.5,152-334.5,152z"/>
	<path class="st9" d="M-312,150.5c-3.6,0-6.5,2.9-6.5,6.5s2.9,6.5,6.5,6.5c3.6,0,6.5-2.9,6.5-6.5S-308.4,150.5-312,150.5z"/>
	<path class="st7" d="M-312,165c-4.5,0-8-3.5-8-8s3.5-8,8-8c4.5,0,8,3.5,8,8S-307.5,165-312,165z M-312,152c-2.5,0-5,2-5,5s2,5,5,5
		s5-2,5-5C-307,154-309.5,152-312,152z"/>
	<path class="st10" d="M-289.5,150.5c-3.6,0-6.5,2.9-6.5,6.5s2.9,6.5,6.5,6.5l0,0c3.6,0,6.5-2.9,6.5-6.5S-285.9,150.5-289.5,150.5z"
		/>
	<path class="st7" d="M-289.5,165c-4.5,0-8-3.5-8-8s3.5-8,8-8c4.5,0,8,3.5,8,8S-285.5,165-289.5,165z M-289.5,152c-2.5,0-5,2-5,5
		s2,5,5,5s5-2,5-5C-284.5,154-287,152-289.5,152z"/>
	<path class="st11" d="M-270,228.5v-38h108V235h-82.5"/>
	<path class="st7" d="M-162,237h-82.5c-1,0-2-1-2-2s1-2,2-2h81v-41h-105v36.5c0,1-1,2-2,2s-2-1-2-2v-38c0-1,1-2,2-2H-162
		c1,0,2,1,2,2V235C-160,236-161,237-162,237z M-286,319.5c-1,0-2-1-2-1.5V187.5c0-1,1-2,2-2s2,1,2,2V318
		C-284.5,319-285,319.5-286,319.5z M-216,259h-54c-1,0-2-1-2-1.5s1-1.5,2-1.5h54c1,0,1.5,1,1.5,1.5S-215,259-216,259z M-216,281.5
		h-54c-1,0-2-1-2-1.5s1-1.5,2-1.5h54c1,0,1.5,1,1.5,1.5S-215,281.5-216,281.5z M-216,303.5h-54c-1,0-2-1-2-1.5s1-2,2-2h54
		c1,0,1.5,1,1.5,1.5S-215,303.5-216,303.5z"/>
	<path class="st11" d="M-206.5,257.5h44.5V302h-44.5V257.5z"/>
	<path class="st7" d="M-162,304h-44.5c-1,0-2-1-2-2v-44.5c0-1,1-2,2-2h44.5c1,0,2,1,2,2V302C-160,303-161,304-162,304z M-204.5,300
		h41v-41h-41L-204.5,300L-204.5,300z M-252,237h-9c-1,0-2-1-2-2s1-2,2-2h9c1,0,2,1,2,2S-251,237-252,237z M-332,204c0-0.5,0-1.5,0-2
		c0-0.5,0-1,0-2c0-3.5-2.5-7-6-8c-0.5-5-4.5-8.5-9-8.5c-1.5-3.5-5.5-6-9.5-6c-3.5,0-7,2-9,5c-0.5,0-1.5,0-2,0c-4.5,0-8.5,3.5-8.5,8
		v0.5c-4,1-7,4.5-7,9c0,2,1,4,2,6c-1,1.5-1.5,3-1.5,4.5c0,4.5,4,8,8.5,8l0,0c1,0,2.5,0,3.5-0.5c0,4,3.5,7,7.5,6.5c1,0,1.5,0,2.5-0.5
		c2,2.5,5,3.5,8,3.5c5,0,9-3.5,10-8c3.5-1,5.5-4,6-7.5C-334.5,210.5-332.5,207.5-332,204z"/>
	<path class="st12" d="M-324.5,246.5c0.5-4-1-8-0.5-10l0,0c-3.5-4.5-6-10-11-13.5c-5.5-3.5-12-6.5-18.5-8
		c-15.5-4-30.5,7.5-35.5,22.5v0.5c0.5,2.5,0.5,5.5,0.5,8c-4,0-6,2.5-4.5,7c0,0,1.5,7.5,2.5,11c0.5,2,2,3.5,4,3.5c0,2.5,0,4.5,0,7
		c0,3,0.5,5.5,2.5,8c4,6,25,20,30,19.5c8.5,0,24.5-14.5,29-21.5c1-1.5,1-3,1.5-4.5v-8c1.5,0,3-1.5,3.5-3.5c1-3.5,2.5-11,2.5-11
		C-317,248.5-320,246.5-324.5,246.5z"/>
	<path class="st13" d="M-356.5,197c-31.5,0-44.5,24-35,47.5c0.5,1,4.5,0,5-1c1-13,8-24,30.5-18.5c22-5.5,29,5.5,30.5,18.5
		c0,1,3.5,1,4,0C-313,220.5-325.5,197-356.5,197z"/>
	<path class="st12" d="M-311.5,318l-1-0.5l-1.5-0.5c-3.5-1.5-25-9-25-9c-1.5-0.5-2.5-1.5-3.5-3c-0.5-2.5-1-5.5-0.5-8
		c-3.5,1.5-7.5,2.5-11.5,3.5c-5,0.5-14-5.5-14-5.5s0,8.5-0.5,10.5c-0.5,1.5-2,3-3.5,3L-394,315c-2,0.5-4,1.5-6,2.5
		c-4,3-7,7.5-8.5,12.5c-0.5,2-0.5,4,0,6c0,1.5-0.5,19-1,21c22.5,15,43,14,71.5,14c12.5,0,26-6.5,37-10.5
		C-302,333.5-300,321.5-311.5,318z"/>
	<g class="st14">
		<path class="st15" d="M-375,265c-3,0-5.5,2.5-5.5,5.5s2.5,5.5,5.5,5.5l0,0c3,0,5.5-2.5,5.5-5.5S-372,265-375,265z M-334,265
			c-3,0-5.5,2.5-5.5,5.5s2.5,5.5,5.5,5.5s5.5-2.5,5.5-5.5S-331,265-334,265z"/>
	</g>
	<path class="st7" d="M-386,270c-0.5,0-1-0.5-1-1l-2-22.5c0-0.5,0.5-1,1-1s1,0.5,1,1l2,22.5C-385,269.5-385.5,270-386,270L-386,270z
		 M-325,268.5L-325,268.5c-0.5,0-1-0.5-1-1l1-22.5c0-0.5,0.5-1,1-1s1,0.5,1,1l-1,22.5C-324,268-324.5,268.5-325,268.5z"/>
	<path class="st16" d="M-353,295.5C-353,295.5-352.5,295.5-353,295.5C-352.5,295-353,295-353,295.5C-353,295-353,295-353,295.5
		l-5-0.5c0,0,0,0,0,0.5l0,0H-353z"/>
	<path class="st7" d="M-361,237c-7,0.5-13.5,2-19.5,5c-0.5,0-0.5,0.5-0.5,0.5c0,0.5,0.5,0.5,0.5,0.5c6-1,12-2,18.5-2.5l0,0
		c0,0,0.5,0,0.5-0.5l1-2.5C-360.5,237.5-360.5,237.5-361,237C-360.5,237-361,237-361,237z M-348.5,236.5c7,0.5,13.5,2.5,19.5,5.5
		c0.5,0,0.5,0.5,0.5,0.5c0,0.5-0.5,0.5-0.5,0.5c-6-1.5-12-2.5-18-3l0,0c0,0-0.5,0-0.5-0.5l-1-2.5C-349,237-349,237-348.5,236.5
		C-349,236.5-349,236.5-348.5,236.5z M-370,246c-1.5,0-2.5,1-3,2.5h0.5c1.5,0,2,1.5,2,2.5s-1,2-2,2c-0.5,0-0.5,0-1-0.5
		c0.5,2,2,3.5,4,3.5c2.5-0.5,4-2.5,4-5C-365.5,249-367.5,246.5-370,246L-370,246z M-340,246c-1,0-2.5,0.5-3,1.5h0.5c1,0,2,1,2,2l0,0
		c0,1-1,2-2,2.5c-0.5,0-1.5-0.5-1.5-1c-0.5,2.5,1.5,4.5,4,5c2.5-0.5,4-2.5,4-5C-335.5,249-337.5,246.5-340,246L-340,246z"/>
	<path class="st16" d="M-354.5,268.5c1.5,0,3-1,3.5-2c0-0.5,0-0.5,0-1c0,0-0.5-0.5-0.5,0l0,0c-1,1.5-3.5,2-5,0.5
		c-0.5,0-0.5-0.5-0.5-0.5s-0.5-0.5-0.5,0l0,0c0,0.5,0,0.5,0,1C-357.5,267.5-356,268.5-354.5,268.5z"/>
	<path class="st17" d="M-367,277.5c0,0.5,0,1,0,1.5c0,5,5.5,9,12,9s12.5-4,12.5-9c0-0.5,0-1,0-1.5H-367z"/>
	<path class="st8" d="M-348.5,287c-1.5-1.5-4-2.5-6.5-2c-2.5,0-4.5,0.5-6.5,2C-357,289-352.5,289-348.5,287z"/>
	<path class="st18" d="M-363,277.5L-363,277.5v1.5c0,1.5,2,2.5,4,2.5h9c2,0,4-1,4-2.5v-1.5H-363z"/>
	<path class="st7" d="M-354.5,289.5c-7.5,0-13.5-4.5-13.5-10.5c0-0.5,0-1,0-2c0-0.5,0.5-1,1-1h24.5c0.5,0,1,0.5,1,1s0,1.5,0,2
		C-341,285-347,289.5-354.5,289.5z M-365.5,278.5C-365.5,278.5-365.5,279-365.5,278.5c0,5,5,8.5,11,8.5s11-3.5,11-8v-0.5
		L-365.5,278.5L-365.5,278.5z M-353.5,301.5C-353.5,301.5-353.5,301-353.5,301.5c-5.5-1-10.5-3-15-6c-0.5-0.5-0.5-1-0.5-1.5
		c0.5-0.5,1-0.5,1.5-0.5c4,2.5,8.5,4.5,13.5,5.5c4-1,8-2.5,11.5-4.5c0.5-0.5,1.5,0,1.5,0.5c0.5,0.5,0,1.5-0.5,1.5
		C-345,299-349,300.5-353.5,301.5C-353.5,301-353.5,301.5-353.5,301.5z"/>
	<path class="st4" d="M-380.5,310c-0.5,12.5,12.5,12.5,24.5,12s22.5,0.5,21-13.5l13,4.5l4,52.5c-25.5,8-53.5,7-78.5-2.5l2.5-48.5
		L-380.5,310z"/>
	<path class="st19" d="M-356.5,322.5l-10,10.5l-20-21l13.5-5l4,4L-356.5,322.5z M-356.5,322.5l10,10.5l19.5-20c-4-2.5-8.5-4-13-6
		l-4,4L-356.5,322.5z"/>
	<path class="st7" d="M-357,373.5c-22,0-43.5-4.5-53.5-15.5c-0.5-0.5-0.5-1-0.5-1.5c0-1,0.5-16.5,1-26.5c1.5-6,5-11,9.5-14.5
		c2-1.5,4-2,6.5-3l21-7c1-0.5,2-1,2.5-2c0-1,0.5-5,0.5-7.5c-5.5-3.5-11-8-15.5-13c-2-3-3-6-3-9v-5.5c-2-0.5-3.5-2.5-4-4.5
		c-1-3.5-2.5-10.5-2.5-11c-1-3-1-5,0.5-6.5c0.5-0.5,1-1,1.5-1.5l0,0l0,0c-6.5-14-3-31,8.5-41c-0.5-1-0.5-2.5-0.5-4
		c0-4.5,2.5-8.5,6.5-10c0.5-5.5,5.5-9,10.5-9c0.5,0,0.5,0,1,0c1-1.5,3-3,4.5-4c6-2.5,12.5-0.5,16,5c5,0.5,9,4,10,9c3.5,1.5,6,5,6,9
		c0,0.5,0,1,0,2v0.5c12.5,9,16.5,25.5,10,41.5v0.5c1.5,0.5,3,1.5,3.5,2.5c1,1,1.5,3,0.5,6.5l0,0c0,0,0,0.5-0.5,1.5
		c-0.5,2.5-1.5,7-2.5,9.5c-0.5,2-1.5,3.5-3.5,4v7c0,2-0.5,4-1.5,5.5c-5,7-10.5,12.5-17,17c0,2,0,4,0.5,6c0.5,1,1,1.5,2,1.5
		c1,0.5,22,7.5,25,9l2.5,1c10.5,3.5,11,13.5,11.5,31.5c0,4,0,8,0.5,12.5c0,0.5-0.5,1.5-1,1.5C-309.5,368.5-333.5,373.5-357,373.5z
		 M-407.5,356c19,20.5,86,15,104.5,3c0-4.5-0.5-8-0.5-12c-0.5-19-1-25.5-9-28l0,0l-2.5-1c-3-1.5-24.5-9-25-9c-2-0.5-3.5-2-4.5-4
		c-1-3-1-5.5-1-8.5c0-0.5,0.5-1,1-1.5c6.5-4.5,12.5-10,17-16c0.5-1,1-2.5,1-3.5v-8c0-1,0.5-1.5,1.5-2c1,0,1.5-1,2-2
		c1-2.5,2-7,2.5-9.5c0-1,0.5-1.5,0.5-1.5l0,0c0.5-1.5,0.5-2.5,0-3c-0.5-1-2-1.5-4-1.5c-0.5,0-1,0-1.5-0.5c-0.5-0.5-0.5-1-0.5-1.5v-2
		c0-1,1-2,2-2c6-15,2-29.5-9.5-37.5c-0.5-0.5-1-1-1-2c0-0.5,0-1,0-1V201c0-0.5,0-1,0-1.5c0-3-2-5.5-4.5-6.5c-1,0-1.5-1-1.5-1.5
		c-0.5-4-3.5-7-7.5-7c-0.5,0-1.5-0.5-1.5-1c-2-4.5-7-6-11.5-4c-1.5,0.5-3,2-3.5,3.5c-0.5,0.5-1,1-2,1c-0.5,0-1,0-2,0
		c-4,0-7,2.5-7,6.5c0,1-0.5,2-1.5,2c-3,1-5,4-5.5,7c0,1,0.5,2.5,1,3.5c0.5,1,0.5,2-0.5,2.5c-11,9-15,24-9,37h0.5c0.5,0,1,0,1.5,0.5
		c0.5,0.5,0.5,1,0.5,1.5v1.5c0,1-1,2-2,2c-1.5,0-2.5,0.5-2.5,1c-0.5,0.5-0.5,2,0,3.5c0,0,1.5,7.5,2.5,11c0,1,1,2,2,2c1,0,2,1,2,2v7
		c0,2.5,0.5,5,2,7c4.5,5,9.5,9,15.5,12.5c0.5,0.5,1,1,1,1.5c0,2.5-0.5,8-0.5,9.5c-1,2.5-2.5,4-5,4.5l-21,7c-2,0.5-4,1.5-5.5,2.5
		c-4,2.5-7,7-8,11.5C-406.5,332.5-407,351.5-407.5,356z M-323.5,242.5C-324,242.5-324,243-323.5,242.5
		C-324,243-324,242.5-323.5,242.5z"/>
</g>
<g id="Layer_2">
	<path class="st2" d="M436,320.9l0-141.8c0-22.6-12-43.5-31.6-54.8L281.6,53.5c-19.6-11.3-43.7-11.3-63.2,0L95.6,124.4
		C76.1,135.7,64,156.5,64,179.1l0,141.8c0,22.6,12,43.5,31.6,54.8l122.8,70.9c19.6,11.3,43.7,11.3,63.2,0l122.8-70.9
		C423.9,364.3,436,343.5,436,320.9z"/>
	<g>
		<path class="st1" d="M392.8,72.2c-2.5,0-4.5,2-4.5,4.5s2,4.5,4.5,4.5c0,0,0,0,0,0c2.5,0,4.5-2,4.5-4.5
			C397.3,74.3,395.2,72.3,392.8,72.2C392.8,72.2,392.8,72.2,392.8,72.2z"/>
		<path class="st1" d="M420.2,67.2c-11,0-20,9-20,20s9,20,20,20s20-9,20-20S431.3,67.2,420.2,67.2z"/>
		<path class="st6" d="M69.3,146.2c-5.2,0-9.5,4.3-9.5,9.5c0,5.2,4.3,9.5,9.5,9.5c5.2,0,9.5-4.3,9.5-9.5
			C78.8,150.5,74.5,146.2,69.3,146.2z"/>
		<path class="st1" d="M395.2,386.2c-5.2,0-9.5,4.2-9.5,9.5c0,5.2,4.2,9.5,9.5,9.5c0,0,0,0,0,0c5.2,0,9.5-4.2,9.5-9.5
			C404.8,390.5,400.5,386.3,395.2,386.2C395.3,386.2,395.3,386.2,395.2,386.2z M95.3,370.2c-11,0-20,9-20,20s9,20,20,20s20-9,20-20
			S106.3,370.2,95.3,370.2z"/>
		<path class="st4" d="M124.8,413.8c-5.2,0-9.5,4.2-9.5,9.5c0,5.2,4.2,9.5,9.5,9.5c0,0,0,0,0,0c5.2,0,9.5-4.2,9.5-9.5
			C134.3,418,130,413.8,124.8,413.8C124.8,413.8,124.8,413.8,124.8,413.8z"/>
		<path class="st20" d="M338.2,392.2c-7.2,0-13,5.8-13,13c0,7.2,5.8,13,13,13s13-5.8,13-13C351.3,398.1,345.4,392.2,338.2,392.2z
			 M82.8,244.2c-2.5,0-4.5,2-4.5,4.5c0,2.5,2,4.5,4.5,4.5c0,0,0,0,0,0c2.5,0,4.5-2,4.5-4.5C87.3,246.3,85.2,244.3,82.8,244.2
			C82.8,244.2,82.8,244.2,82.8,244.2z"/>
		<path class="st1" d="M428.8,160.8c-2.5,0-4.5,2-4.5,4.5c0,2.5,2,4.5,4.5,4.5c0,0,0,0,0,0c2.5,0,4.5-2,4.5-4.5
			C433.3,162.8,431.2,160.8,428.8,160.8C428.8,160.8,428.8,160.8,428.8,160.8z"/>
		<path class="st21" d="M404.8,332.2c-5,0-9,4-9,9c0,5,4,9,9,9c0,0,0,0,0,0c5,0,9-4,9-9C413.8,336.3,409.7,332.3,404.8,332.2
			C404.8,332.2,404.8,332.2,404.8,332.2z"/>
	</g>
	<g>
		<ellipse class="st6" cx="251.5" cy="381.2" rx="106.5" ry="18.8"/>
		<path class="st22" d="M162.7,203.7c0-27.4,40.2-49.7,89.9-49.7s89.9,22.3,89.9,49.7"/>
		<path class="st23" d="M280.9,173.1h-73.1c-14.5-24.4-14.5-48.8,0-73.1h73.1C260.7,124.4,260.7,148.8,280.9,173.1z"/>
		<rect x="218.2" y="108.7" class="st6" width="41.2" height="5.2"/>
		<rect x="204.9" y="125.8" class="st0" width="54.6" height="1.7"/>
		<rect x="204.9" y="134.8" class="st0" width="54.6" height="1.7"/>
		<rect x="204.9" y="143.8" class="st0" width="54.6" height="1.7"/>
		<path class="st1" d="M310.1,335c0,23.2,14.6,42,32.5,42"/>
		<path class="st6" d="M342.6,377c0-23.5,16.2-42.4,36.3-42.4"/>
		<path class="st6" d="M321.9,337.1c0,22,9.3,39.9,20.7,39.9"/>
		<path class="st1" d="M342.6,377c0-30,18.8-54.2,42-54.2"/>
		<path class="st24" d="M335.8,377.3c0,0,4.6-0.1,6-1.1c1.4-1,7.1-2.2,7.4-0.6s6.9,7.9,1.7,7.9s-12.1-0.8-13.5-1.7
			C336.1,381,335.8,377.3,335.8,377.3z"/>
		<path class="st25" d="M351.1,383c-5.2,0-12.1-0.8-13.5-1.7c-1.1-0.6-1.5-3-1.6-4c-0.1,0-0.2,0-0.2,0s0.3,3.7,1.7,4.6
			c1.4,0.8,8.3,1.7,13.5,1.7c1.5,0,2-0.5,2-1.3C352.7,382.6,352.2,382.9,351.1,383z"/>
		<path class="st26" d="M235.9,157.1c0.4,0.2,0.9-0.1,1.2-0.5c1-1.5-0.8-3.4-0.4-5.2c0.3-1.4,1.9-2.2,2.2-3.6c0.3-1.3-0.7-2.9,0-4.1
			c0.5-1,1.8-1.2,2.9-1c1.1,0.2,2.1,0.6,3.2,0.7c1.4,0.1,2.8-0.5,4.2-0.9c1.4-0.3,3.1-0.2,4,1c1.1,1.5,0,3.6,0.4,5.4
			c0.3,1.4,1.5,2.6,1.5,4.1c0,0.5-1.4,0.1-1.3,0.6c0.1,0.5-0.6,0.1-0.1,0c0.4-0.1,0.8-0.5,0.8-0.9c0.1-0.4,0.9-0.6,0.9-1
			c0-1,1.8-0.3,2.1-1.3c0.7-2.3,0.6-4.7-0.4-6.9c-0.4-0.9-1-1.8-1.2-2.8c-0.3-1.4,0.2-2.8-0.3-4.1c-0.6-1.8-2.6-2.7-4.4-2.8
			c-1.8-0.2-3.7,0.1-5.6-0.1c-1.6-0.2-3.2-1-4.9-0.9c-2,0.1-3.7,1.4-5.1,2.9s-2.6,3.1-4.1,4.3c-0.5,0.3-0.9,0.7-1.3,1.1
			c-0.8,1-0.9,2.4-0.7,3.6c0.2,1.2,0.7,2.4,0.9,3.7c0.2,1.2,0.1,2.4,0.2,3.5c0.1,1.2,0.3,2.4,1,3.3c0.6,0.8,1.5,1.3,2.5,1.3
			c0.3,0,0.6-0.3,0.9-0.2C235.3,156.6,235.5,157,235.9,157.1z"/>
		<polygon class="st27" points="221.7,243 222.9,250.6 225.4,247.2 223.9,242.1 		"/>
		<path class="st28" d="M223.2,185.7l-1.9,5.1c0,0-1.9,26.1-1.9,28s1.4,26.8,1.9,27.8c0,0,2.3-3.3,5.3-2.8c3,0.5,1.8-8.8,1.8-8.8
			l2.8-23.1l-0.5-11.6L223.2,185.7z"/>
		<path class="st4" d="M223.2,185.7l-1.9,5.1c0,0-1.9,26.1-1.9,28s1.4,26.8,1.9,27.8c0,0,2.3-3.3,5.3-2.8c3,0.5,1.8-8.8,1.8-8.8
			l2.8-23.1l-0.5-11.6L223.2,185.7z"/>
		<path class="st27" d="M235.2,157.6c0,0,5.8,14.8,2.5,17.6c-3.3,2.8,18.7-4.8,18.7-4.8l-0.5-1.9c0,0-7.2-2.8-3.7-10.9
			C255.7,149.4,235.2,157.6,235.2,157.6z"/>
		<path class="st29" d="M235.2,157.6c0,0,5.8,14.8,2.5,17.6c-3.3,2.8,18.7-4.8,18.7-4.8l-0.5-1.9c0,0-7.2-2.8-3.7-10.9
			C255.7,149.4,235.2,157.6,235.2,157.6z"/>
		<path class="st30" d="M226.1,355.3c0,0-2.5-0.7-3.9,1.1s-6.7,6.2-6.7,6.2s-10.2-1.1-11.6,4.1c-1.4,5.1,16,5.1,20.3,3.9
			c4.2-1.2,5.1,0,5.1,0s13,1.1,13-1.1c0-2.1-1.2-9.3-1.2-9.3L226.1,355.3z"/>
		<path class="st30" d="M267.5,367.1l-2.3,7c0,0-6.9,9.5-3,11.5c3.9,1.9,17.6,3.9,17.6-1.2v-9.7c0,0-1.4-6.9-2.8-7.6
			S267.5,367.1,267.5,367.1z"/>
		<path class="st31" d="M228.6,240.4c0,0-7.4,6.5-7.3,7.3s3.7,57.4,3.7,57.4l1.9,36.7c0,0-2.5,8.6-1.2,10.6s-1.8,2.5-1.8,2.5
			s12.7,11.5,18,6.5l4.9-64l13.6,46.5c0,0,2.3,24.7,4.9,24.7s13.4,0.5,13.2-0.9s0.5-12.2-0.7-18.5c-1.2-6.3-9.5-56.6-9.5-56.6
			s-0.7-43.1,1.1-47.1c1.9-4-1-8.3-1-8.3l-12.3-4.8l-14.8,1.8L228.6,240.4z"/>
		<circle class="st27" cx="243.5" cy="151.2" r="12.3"/>
		<path class="st4" d="M273.5,177.8c-1.2-3.5-4.1-6.1-7.8-7c-3.6-0.9-7-2.1-10.4-3.5c0,0-12.5,6-15,6s-2.5-1.6-2.5-1.6
			s-6.3,6.7-9.7,7.4c-3.3,0.7-8.3,9-6.5,13.6c1.2,2.9,2.9,5.6,5.1,7.9c0,0-0.7,24.7,1.6,29.3c0,0-5.6,10.7-0.4,11.5
			c5.3,0.7,25.5-1.8,29.1,0.7c3.5,2.5,10-0.5,10.9,2.8c0.9,3.3,2.8,4.1,2.8,4.1s3-4.8,1.2-7.6C270.3,238.4,273.5,177.8,273.5,177.8z
			"/>
		<path class="st27" d="M260.4,244.1l-2.8,1.8c0,0,3,10.4,4.2,10.7c1.2,0.4,4.1-8.9,4.1-8.9L260.4,244.1z"/>
		<path class="st26" d="M233.8,155.9c0.4,0.2,0.9-0.1,1.2-0.5c1-1.5-0.8-3.4-0.4-5.2c0.3-1.4,1.9-2.2,2.2-3.6c0.3-1.3-0.7-2.9,0-4.1
			c0.5-1,1.8-1.2,2.9-1c1.1,0.2,2.1,0.6,3.2,0.7c1.4,0.1,2.8-0.5,4.2-0.9c1.4-0.3,3.1-0.2,4,1c1.1,1.5,0,3.6,0.4,5.4
			c0.3,1.4,3.6,2.5,3.9,1.5c0.7-2.3,0.6-4.7-0.4-6.9c-0.4-0.9-1-1.8-1.2-2.8c-0.3-1.4,0.2-2.8-0.3-4.1c-0.6-1.8-2.6-2.7-4.4-2.8
			c-1.8-0.2-3.7,0.1-5.6-0.1c-1.6-0.2-3.2-1-4.9-0.9c-2,0.1-3.7,1.4-5.1,2.9c-1.4,1.4-2.6,3.1-4.1,4.3c-0.5,0.3-0.9,0.7-1.3,1.1
			c-0.8,1-0.9,2.4-0.7,3.6s0.7,2.4,0.9,3.7c0.2,1.2,0.1,2.4,0.2,3.5c0.1,1.2,0.3,2.4,1,3.3c0.6,0.8,1.5,1.3,2.5,1.3
			c0.3,0,0.6-0.3,0.9-0.2C233.2,155.3,233.4,155.7,233.8,155.9z"/>
		<path class="st29" d="M266.5,180.9l5.7-3.1c0,0,13.9,33.1,10.6,42.3c-3.3,9.2-16.2,28-16.2,28s-10.2-2.1-9.2-4.2
			s7.9-15.7,8.5-17.4s4.1-13.2,2.5-14.4c-1.6-1.2-4.7-29.9-4.7-29.9L266.5,180.9z"/>
		<path class="st4" d="M266.4,175.9l7,1.9c0,0,13.9,33.1,10.6,42.3s-16.2,28-16.2,28s-10.2-2.1-9.2-4.2c1.1-2.1,7.9-15.7,8.5-17.4
			c0.5-1.8,4.1-13.2,2.5-14.4c-1.6-1.2-9.2-31.7-9.2-31.7L266.4,175.9z"/>
		<path class="st22" d="M342.5,203.7c0,28.8-40.2,52.1-89.9,52.1s-89.9-23.3-89.9-52.1"/>
		<path class="st22" d="M326.2,256.5c-20.1,10.8-46.3,17.4-75,17.4c-27.5,0-52.7-6-72.5-16.1"/>
		<path class="st22" d="M297.5,140.5c38.2,10.1,65.5,32.2,68,58.2"/>
		<path class="st22" d="M142.2,181.8c6.4-11.8,18.2-22.3,33.6-30.3"/>
		<path class="st21" d="M221.2,308.6h73.1c14.5-24.4,14.5-48.8,0-73.1h-73.1C241.4,259.8,241.4,284.2,221.2,308.6z"/>
		<rect x="245.4" y="249.4" class="st6" width="41.2" height="5.2"/>
		<rect x="242.2" y="265.1" class="st0" width="54.6" height="1.7"/>
		<rect x="242.2" y="274.1" class="st0" width="54.6" height="1.7"/>
		<path class="st21" d="M190.2,258.9h-73.1c-14.5-24.4-14.5-48.8,0-73.1h73.1C170,210.2,170,234.6,190.2,258.9z"/>
		<rect x="125.2" y="194.5" class="st6" width="41.2" height="5.2"/>
		<rect x="116.2" y="209" class="st0" width="54.6" height="1.7"/>
		<rect x="116.2" y="218" class="st0" width="54.6" height="1.7"/>
		<rect x="116.2" y="227" class="st0" width="54.6" height="1.7"/>
		<rect x="116.2" y="236" class="st0" width="54.6" height="1.7"/>
		<path class="st21" d="M309.8,225.3h73.1c14.5-24.4,14.5-48.8,0-73.1h-73.1C330,176.5,330,200.9,309.8,225.3z"/>
		<rect x="333.1" y="159.4" class="st6" width="41.2" height="5.2"/>
		<rect x="328.8" y="173.9" class="st0" width="54.6" height="1.7"/>
	</g>
</g>
</svg>
